<svg xmlns="http://www.w3.org/2000/svg" width="640" height="240" viewBox="0 0 640 240" role="img" aria-label="RepoPet status card">
  
    <defs>
      <linearGradient id="cardGradient" x1="0" y1="0" x2="1" y2="1">
        <stop offset="0%" stop-color="#DDF1FF" />
        <stop offset="100%" stop-color="#A8D8FF" />
      </linearGradient>
    </defs>
    <rect x="1" y="1" width="638" height="238" rx="20" fill="url(#cardGradient)" stroke="#246CA8" stroke-width="2" />
    <circle cx="570" cy="42" r="24" fill="#246CA8" opacity="0.12" />
    <circle cx="520" cy="28" r="12" fill="#246CA8" opacity="0.1" />
  
  
    
      <circle cx="156" cy="78" r="18" fill="#5BA7E0" stroke="#245D8A" stroke-width="3" />
      <circle cx="204" cy="78" r="18" fill="#5BA7E0" stroke="#245D8A" stroke-width="3" />
    
    <circle cx="180" cy="122" r="54" fill="#5BA7E0" stroke="#245D8A" stroke-width="4" />
    <ellipse cx="180" cy="140" rx="35" ry="22" fill="#FFFFFF" opacity="0.22" />
    <circle cx="160" cy="130" r="7" fill="#F4B1C7" opacity="0.7" />
    <circle cx="200" cy="130" r="7" fill="#F4B1C7" opacity="0.7" />
  
  
    <circle cx="168" cy="114" r="5" fill="#1E1E1E" />
    <circle cx="192" cy="114" r="5" fill="#1E1E1E" />
    <circle cx="170" cy="112" r="1.8" fill="#FFFFFF" />
    <circle cx="194" cy="112" r="1.8" fill="#FFFFFF" />
  
  <path d="M166 132 Q180 146 194 132" fill="none" stroke="#1E1E1E" stroke-width="3" stroke-linecap="round" />
  
    <rect x="316" y="48" width="258" height="150" rx="14" fill="#FFFFFF" opacity="0.35" />
    
        <text x="332" y="74" font-family="Verdana, sans-serif" font-size="12" fill="#1B1B1B">Health</text>
        <rect x="390" y="64" width="170" height="12" rx="6" fill="#FFFFFF" opacity="0.55" />
        <rect x="390" y="64" width="141.1" height="12" rx="6" fill="#2C8E5A" />
        <text x="566" y="74" text-anchor="end" font-family="Verdana, sans-serif" font-size="12" fill="#1B1B1B">83</text>
      
        <text x="332" y="106" font-family="Verdana, sans-serif" font-size="12" fill="#1B1B1B">Mood</text>
        <rect x="390" y="96" width="170" height="12" rx="6" fill="#FFFFFF" opacity="0.55" />
        <rect x="390" y="96" width="139.4" height="12" rx="6" fill="#246CA8" />
        <text x="566" y="106" text-anchor="end" font-family="Verdana, sans-serif" font-size="12" fill="#1B1B1B">82</text>
      
        <text x="332" y="138" font-family="Verdana, sans-serif" font-size="12" fill="#1B1B1B">Growth</text>
        <rect x="390" y="128" width="170" height="12" rx="6" fill="#FFFFFF" opacity="0.55" />
        <rect x="390" y="128" width="136" height="12" rx="6" fill="#A05B16" />
        <text x="566" y="138" text-anchor="end" font-family="Verdana, sans-serif" font-size="12" fill="#1B1B1B">80</text>
      
        <text x="332" y="170" font-family="Verdana, sans-serif" font-size="12" fill="#1B1B1B">Chaos</text>
        <rect x="390" y="160" width="170" height="12" rx="6" fill="#FFFFFF" opacity="0.55" />
        <rect x="390" y="160" width="17" height="12" rx="6" fill="#B44058" />
        <text x="566" y="170" text-anchor="end" font-family="Verdana, sans-serif" font-size="12" fill="#1B1B1B">10</text>
      
  
  
    <text x="26" y="38" font-family="Verdana, sans-serif" font-size="24" font-weight="700" fill="#182025">RepoPet</text>
    <text x="26" y="60" font-family="Verdana, sans-serif" font-size="14" fill="#23343D">Level 9 • Prime Release Beast</text>
    <text x="26" y="194" font-family="Verdana, sans-serif" font-size="13" fill="#1F2A31">Stable build, good mood, still hungry for PRs.</text>
    <text x="26" y="212" font-family="Verdana, sans-serif" font-size="11" fill="#3A515B">JieJieSAM/RepoPet • main • 2026-04-09</text>
    <text x="316" y="34" font-family="Verdana, sans-serif" font-size="12" fill="#22323A">Stage: final • Expression: proud</text>
  
</svg>
