<svg xmlns="http://www.w3.org/2000/svg" width="1200" height="708" viewBox="0 0 1200 708" role="img" aria-label="RepoPet Zoo Dashboard">
  <rect x="0" y="0" width="1200" height="708" fill="#F6F2EA" />
  
    <rect x="16" y="16" width="1168" height="164" rx="18" fill="#FFF8E9" stroke="#E2C99B" stroke-width="2" />
    <text x="36" y="52" font-family="Verdana, sans-serif" font-size="28" font-weight="700" fill="#2D2A26">RepoPet Zoo · JieJieSAM</text>
    <text x="36" y="82" font-family="Verdana, sans-serif" font-size="20" fill="#5C3B1C">仓库冬眠管理员</text>
    <text x="36" y="110" font-family="Verdana, sans-serif" font-size="14" fill="#3A3A3A">近期以保温为主，活跃仓库 1 个，建议唤醒核心项目。</text>
    <text x="36" y="136" font-family="Verdana, sans-serif" font-size="13" fill="#3A3A3A">主导特征: 健康度领先</text>
    <text x="36" y="158" font-family="Verdana, sans-serif" font-size="13" fill="#864E39">提醒信号: CI 稳定性待提升</text>

    <rect x="840" y="34" width="320" height="126" rx="14" fill="#FFFFFF" stroke="#EAD8B8" />
    <text x="860" y="62" font-family="Verdana, sans-serif" font-size="13" fill="#4B3B2A">人格心情: 想睡</text>
    <text x="860" y="84" font-family="Verdana, sans-serif" font-size="12" fill="#4B3B2A">平均健康: 45</text>
    <text x="860" y="103" font-family="Verdana, sans-serif" font-size="12" fill="#4B3B2A">平均成长: 24.75</text>
    <text x="860" y="122" font-family="Verdana, sans-serif" font-size="12" fill="#4B3B2A">活跃仓库: 1</text>
    <text x="860" y="141" font-family="Verdana, sans-serif" font-size="12" fill="#4B3B2A">冬眠仓库: 3</text>
  
  
    <g transform="translate(16, 196)">
      <rect x="0" y="0" width="370" height="164" rx="14" fill="#FFFFFF" stroke="#DCDCDC" />
      <circle cx="42" cy="44" r="24" fill="#43D17A" stroke="#1C8C4A" stroke-width="3" />
      
      <circle cx="37" cy="40" r="2.8" fill="#1E1E1E" />
      <circle cx="47" cy="40" r="2.8" fill="#1E1E1E" />
      <path d="M35 49 Q42 55 49 49" fill="none" stroke="#1E1E1E" stroke-width="2" />
    
      <text x="20" y="92" font-family="Verdana, sans-serif" font-size="11" fill="#303030">🟢 霓虹史莱姆</text>

      <text x="90" y="32" font-family="Verdana, sans-serif" font-size="15" font-weight="700" fill="#1F1F1F">RepoPet</text>
      <text x="90" y="52" font-family="Verdana, sans-serif" font-size="11" fill="#4D4D4D">阶段: final · 风格: 卷王型</text>
      <text x="90" y="70" font-family="Verdana, sans-serif" font-size="10.5" fill="#5A5A5A">Stable build, good mood, st…</text>

      
    <text x="90" y="95" font-family="Verdana, sans-serif" font-size="10" fill="#3C3C3C">H</text>
    <rect x="112" y="87" width="92" height="8" rx="4" fill="#F0F0F0" />
    <rect x="112" y="87" width="75.60000000000001" height="8" rx="4" fill="#2C8E5A" />
    <text x="208" y="95" text-anchor="end" font-family="Verdana, sans-serif" font-size="10" fill="#3C3C3C">84</text>
  
      
    <text x="90" y="113" font-family="Verdana, sans-serif" font-size="10" fill="#3C3C3C">M</text>
    <rect x="112" y="105" width="92" height="8" rx="4" fill="#F0F0F0" />
    <rect x="112" y="105" width="73.8" height="8" rx="4" fill="#246CA8" />
    <text x="208" y="113" text-anchor="end" font-family="Verdana, sans-serif" font-size="10" fill="#3C3C3C">82</text>
  
      
    <text x="90" y="131" font-family="Verdana, sans-serif" font-size="10" fill="#3C3C3C">G</text>
    <rect x="112" y="123" width="92" height="8" rx="4" fill="#F0F0F0" />
    <rect x="112" y="123" width="72" height="8" rx="4" fill="#A05B16" />
    <text x="208" y="131" text-anchor="end" font-family="Verdana, sans-serif" font-size="10" fill="#3C3C3C">80</text>
  
      
    <text x="90" y="149" font-family="Verdana, sans-serif" font-size="10" fill="#3C3C3C">C</text>
    <rect x="112" y="141" width="92" height="8" rx="4" fill="#F0F0F0" />
    <rect x="112" y="141" width="5.4" height="8" rx="4" fill="#B44058" />
    <text x="208" y="149" text-anchor="end" font-family="Verdana, sans-serif" font-size="10" fill="#3C3C3C">6</text>
  
    </g>
  
    <g transform="translate(402, 196)">
      <rect x="0" y="0" width="370" height="164" rx="14" fill="#FFFFFF" stroke="#DCDCDC" />
      <circle cx="42" cy="44" r="24" fill="#D29A66" stroke="#8F5A2D" stroke-width="3" />
      
      <line x1="34" y1="40" x2="40" y2="40" stroke="#1E1E1E" stroke-width="2" stroke-linecap="round" />
      <line x1="44" y1="40" x2="50" y2="40" stroke="#1E1E1E" stroke-width="2" stroke-linecap="round" />
      <line x1="39" y1="50" x2="45" y2="50" stroke="#1E1E1E" stroke-width="2" stroke-linecap="round" />
    
      <text x="20" y="92" font-family="Verdana, sans-serif" font-size="11" fill="#303030">🧱 方块熊</text>

      <text x="90" y="32" font-family="Verdana, sans-serif" font-size="15" font-weight="700" fill="#1F1F1F">TA_Recruitment</text>
      <text x="90" y="52" font-family="Verdana, sans-serif" font-size="11" fill="#4D4D4D">阶段: egg · 风格: 冬眠型</text>
      <text x="90" y="70" font-family="Verdana, sans-serif" font-size="10.5" fill="#5A5A5A">Quiet week. I am entering l…</text>

      
    <text x="90" y="95" font-family="Verdana, sans-serif" font-size="10" fill="#3C3C3C">H</text>
    <rect x="112" y="87" width="92" height="8" rx="4" fill="#F0F0F0" />
    <rect x="112" y="87" width="28.8" height="8" rx="4" fill="#2C8E5A" />
    <text x="208" y="95" text-anchor="end" font-family="Verdana, sans-serif" font-size="10" fill="#3C3C3C">32</text>
  
      
    <text x="90" y="113" font-family="Verdana, sans-serif" font-size="10" fill="#3C3C3C">M</text>
    <rect x="112" y="105" width="92" height="8" rx="4" fill="#F0F0F0" />
    <rect x="112" y="105" width="6.3" height="8" rx="4" fill="#246CA8" />
    <text x="208" y="113" text-anchor="end" font-family="Verdana, sans-serif" font-size="10" fill="#3C3C3C">7</text>
  
      
    <text x="90" y="131" font-family="Verdana, sans-serif" font-size="10" fill="#3C3C3C">G</text>
    <rect x="112" y="123" width="92" height="8" rx="4" fill="#F0F0F0" />
    <rect x="112" y="123" width="6.3" height="8" rx="4" fill="#A05B16" />
    <text x="208" y="131" text-anchor="end" font-family="Verdana, sans-serif" font-size="10" fill="#3C3C3C">7</text>
  
      
    <text x="90" y="149" font-family="Verdana, sans-serif" font-size="10" fill="#3C3C3C">C</text>
    <rect x="112" y="141" width="92" height="8" rx="4" fill="#F0F0F0" />
    <rect x="112" y="141" width="12.6" height="8" rx="4" fill="#B44058" />
    <text x="208" y="149" text-anchor="end" font-family="Verdana, sans-serif" font-size="10" fill="#3C3C3C">14</text>
  
    </g>
  
    <g transform="translate(788, 196)">
      <rect x="0" y="0" width="370" height="164" rx="14" fill="#FFFFFF" stroke="#DCDCDC" />
      <circle cx="42" cy="44" r="24" fill="#FF9FAF" stroke="#B34D63" stroke-width="3" />
      
      <line x1="34" y1="40" x2="40" y2="40" stroke="#1E1E1E" stroke-width="2" stroke-linecap="round" />
      <line x1="44" y1="40" x2="50" y2="40" stroke="#1E1E1E" stroke-width="2" stroke-linecap="round" />
      <line x1="39" y1="50" x2="45" y2="50" stroke="#1E1E1E" stroke-width="2" stroke-linecap="round" />
    
      <text x="20" y="92" font-family="Verdana, sans-serif" font-size="11" fill="#303030">🐦 糖果鸟</text>

      <text x="90" y="32" font-family="Verdana, sans-serif" font-size="15" font-weight="700" fill="#1F1F1F">RumorDetection</text>
      <text x="90" y="52" font-family="Verdana, sans-serif" font-size="11" fill="#4D4D4D">阶段: egg · 风格: 冬眠型</text>
      <text x="90" y="70" font-family="Verdana, sans-serif" font-size="10.5" fill="#5A5A5A">Quiet week. I am entering l…</text>

      
    <text x="90" y="95" font-family="Verdana, sans-serif" font-size="10" fill="#3C3C3C">H</text>
    <rect x="112" y="87" width="92" height="8" rx="4" fill="#F0F0F0" />
    <rect x="112" y="87" width="28.8" height="8" rx="4" fill="#2C8E5A" />
    <text x="208" y="95" text-anchor="end" font-family="Verdana, sans-serif" font-size="10" fill="#3C3C3C">32</text>
  
      
    <text x="90" y="113" font-family="Verdana, sans-serif" font-size="10" fill="#3C3C3C">M</text>
    <rect x="112" y="105" width="92" height="8" rx="4" fill="#F0F0F0" />
    <rect x="112" y="105" width="3.6" height="8" rx="4" fill="#246CA8" />
    <text x="208" y="113" text-anchor="end" font-family="Verdana, sans-serif" font-size="10" fill="#3C3C3C">4</text>
  
      
    <text x="90" y="131" font-family="Verdana, sans-serif" font-size="10" fill="#3C3C3C">G</text>
    <rect x="112" y="123" width="92" height="8" rx="4" fill="#F0F0F0" />
    <rect x="112" y="123" width="5.4" height="8" rx="4" fill="#A05B16" />
    <text x="208" y="131" text-anchor="end" font-family="Verdana, sans-serif" font-size="10" fill="#3C3C3C">6</text>
  
      
    <text x="90" y="149" font-family="Verdana, sans-serif" font-size="10" fill="#3C3C3C">C</text>
    <rect x="112" y="141" width="92" height="8" rx="4" fill="#F0F0F0" />
    <rect x="112" y="141" width="12.6" height="8" rx="4" fill="#B44058" />
    <text x="208" y="149" text-anchor="end" font-family="Verdana, sans-serif" font-size="10" fill="#3C3C3C">14</text>
  
    </g>
  
    <g transform="translate(16, 374)">
      <rect x="0" y="0" width="370" height="164" rx="14" fill="#FFFFFF" stroke="#DCDCDC" />
      <circle cx="42" cy="44" r="24" fill="#D9E0E6" stroke="#6A7682" stroke-width="3" />
      
      <line x1="34" y1="40" x2="40" y2="40" stroke="#1E1E1E" stroke-width="2" stroke-linecap="round" />
      <line x1="44" y1="40" x2="50" y2="40" stroke="#1E1E1E" stroke-width="2" stroke-linecap="round" />
      <line x1="39" y1="50" x2="45" y2="50" stroke="#1E1E1E" stroke-width="2" stroke-linecap="round" />
    
      <text x="20" y="92" font-family="Verdana, sans-serif" font-size="11" fill="#303030">⚪ 白团子</text>

      <text x="90" y="32" font-family="Verdana, sans-serif" font-size="15" font-weight="700" fill="#1F1F1F">c</text>
      <text x="90" y="52" font-family="Verdana, sans-serif" font-size="11" fill="#4D4D4D">阶段: egg · 风格: 冬眠型</text>
      <text x="90" y="70" font-family="Verdana, sans-serif" font-size="10.5" fill="#5A5A5A">Quiet week. I am entering l…</text>

      
    <text x="90" y="95" font-family="Verdana, sans-serif" font-size="10" fill="#3C3C3C">H</text>
    <rect x="112" y="87" width="92" height="8" rx="4" fill="#F0F0F0" />
    <rect x="112" y="87" width="28.8" height="8" rx="4" fill="#2C8E5A" />
    <text x="208" y="95" text-anchor="end" font-family="Verdana, sans-serif" font-size="10" fill="#3C3C3C">32</text>
  
      
    <text x="90" y="113" font-family="Verdana, sans-serif" font-size="10" fill="#3C3C3C">M</text>
    <rect x="112" y="105" width="92" height="8" rx="4" fill="#F0F0F0" />
    <rect x="112" y="105" width="3.6" height="8" rx="4" fill="#246CA8" />
    <text x="208" y="113" text-anchor="end" font-family="Verdana, sans-serif" font-size="10" fill="#3C3C3C">4</text>
  
      
    <text x="90" y="131" font-family="Verdana, sans-serif" font-size="10" fill="#3C3C3C">G</text>
    <rect x="112" y="123" width="92" height="8" rx="4" fill="#F0F0F0" />
    <rect x="112" y="123" width="5.4" height="8" rx="4" fill="#A05B16" />
    <text x="208" y="131" text-anchor="end" font-family="Verdana, sans-serif" font-size="10" fill="#3C3C3C">6</text>
  
      
    <text x="90" y="149" font-family="Verdana, sans-serif" font-size="10" fill="#3C3C3C">C</text>
    <rect x="112" y="141" width="92" height="8" rx="4" fill="#F0F0F0" />
    <rect x="112" y="141" width="12.6" height="8" rx="4" fill="#B44058" />
    <text x="208" y="149" text-anchor="end" font-family="Verdana, sans-serif" font-size="10" fill="#3C3C3C">14</text>
  
    </g>
  
  
    <rect x="16" y="554" width="1168" height="138" rx="16" fill="#FFFDF7" stroke="#E0D6C3" />
    <text x="36" y="582" font-family="Verdana, sans-serif" font-size="16" font-weight="700" fill="#2B2B2B">Zoo Highlights</text>
    <text x="36" y="608" font-family="Verdana, sans-serif" font-size="13" fill="#3E3E3E">最活跃仓库: RepoPet (78.65)</text>
    <text x="36" y="630" font-family="Verdana, sans-serif" font-size="13" fill="#3E3E3E">最健康仓库: RepoPet (92.8)</text>
    <text x="36" y="652" font-family="Verdana, sans-serif" font-size="13" fill="#3E3E3E">最混沌仓库: c (14)</text>
    <text x="620" y="608" font-family="Verdana, sans-serif" font-size="13" fill="#3E3E3E">最想睡仓库: TA_Recruitment (162)</text>
    <text x="620" y="630" font-family="Verdana, sans-serif" font-size="13" fill="#3E3E3E">扫描仓库数: 4 · 活跃: 1 · 冬眠: 3</text>
  
</svg>
